# xmcd
#
# Track frame offsets:
#	150
#	14403
#	27271
#	40230
#	53053
#	64388
#	76323
#	89184
#	102742
#	118695
#	130797
#	145197
#	160216
#	172089
#	185440
#
# Disc length: 2622 seconds
#
# Revision: 1
# Processed by: cddbd v1.5.2PL0 Copyright (c) Steve Scherf et al.
# Submitted via: audiograbber 1.83.01
#
DISCID=d70a3c0f
DTITLE=Various Artsts - CB-E9-01
DYEAR=2008
DGENRE=Karaoke
TTITLE0=Tex Ritter and His Texans - There's A New Moon Over My Shoulder
TTITLE1=Al Dexter And His Troopers - New Broom Boogie
TTITLE2=Patsy Cline - A Poor Man's Roses
TTITLE3=Tex Ritter and His Texans - Rock And Rye
TTITLE4=Jimmy Wakely - I Love You So Much It Hurts
TTITLE5=Connie Smith - Burning A Hole In My Mind
TTITLE6=Eddy Arnold - I'm Throwing Rice (At The Girl That I Love)
TTITLE7=Ernest Tubb - I Love You Because
TTITLE8=Loretta Lynn - I Can't Feel You Anymore
TTITLE9=Hank Williams - Lonesome Whistle
TTITLE10=Hawkshaw Hawkins - Slow Poke
TTITLE11=Patsy Cline - In Care Of The Blues
TTITLE12=Tennessee Ernie Ford - Tennessee Local
TTITLE13=Faron Young - Goin' Steady
TTITLE14=Dolly Parton - Just Someone I Used To Know
EXTD=
EXTT0=
EXTT1=
EXTT2=
EXTT3=
EXTT4=
EXTT5=
EXTT6=
EXTT7=
EXTT8=
EXTT9=
EXTT10=
EXTT11=
EXTT12=
EXTT13=
EXTT14=
PLAYORDER=
